<mxfile host="app.diagrams.net" modified="2023-05-21T18:24:31.487Z" agent="Mozilla/5.0 (Windows NT 10.0; Win64; x64) AppleWebKit/537.36 (KHTML, like Gecko) Chrome/113.0.0.0 Safari/537.36" etag="fk5ligHZJvXJghZJWEf3" version="21.2.9" type="device">
  <diagram id="7o4jnNFX7-xIPtkpNvG7" name="Page-1">
    <mxGraphModel dx="2537" dy="936" grid="1" gridSize="10" guides="1" tooltips="1" connect="1" arrows="1" fold="1" page="1" pageScale="1" pageWidth="850" pageHeight="1100" math="0" shadow="0">
      <root>
        <mxCell id="0" />
        <mxCell id="1" parent="0" />
        <mxCell id="sm6yiC6YzLinBvlQKZiJ-2" value="User" style="swimlane;fontStyle=0;childLayout=stackLayout;horizontal=1;startSize=40;horizontalStack=0;resizeParent=1;resizeParentMax=0;resizeLast=0;collapsible=1;marginBottom=0;" parent="1" vertex="1">
          <mxGeometry x="210" y="270" width="150" height="160" as="geometry" />
        </mxCell>
        <mxCell id="sm6yiC6YzLinBvlQKZiJ-23" value="idUser" style="text;strokeColor=none;fillColor=none;align=left;verticalAlign=middle;spacingLeft=4;spacingRight=4;overflow=hidden;points=[[0,0.5],[1,0.5]];portConstraint=eastwest;rotatable=0;" parent="sm6yiC6YzLinBvlQKZiJ-2" vertex="1">
          <mxGeometry y="40" width="150" height="30" as="geometry" />
        </mxCell>
        <mxCell id="sm6yiC6YzLinBvlQKZiJ-3" value="name" style="text;strokeColor=none;fillColor=none;align=left;verticalAlign=middle;spacingLeft=4;spacingRight=4;overflow=hidden;points=[[0,0.5],[1,0.5]];portConstraint=eastwest;rotatable=0;" parent="sm6yiC6YzLinBvlQKZiJ-2" vertex="1">
          <mxGeometry y="70" width="150" height="30" as="geometry" />
        </mxCell>
        <mxCell id="sm6yiC6YzLinBvlQKZiJ-4" value="email" style="text;strokeColor=none;fillColor=none;align=left;verticalAlign=middle;spacingLeft=4;spacingRight=4;overflow=hidden;points=[[0,0.5],[1,0.5]];portConstraint=eastwest;rotatable=0;" parent="sm6yiC6YzLinBvlQKZiJ-2" vertex="1">
          <mxGeometry y="100" width="150" height="30" as="geometry" />
        </mxCell>
        <mxCell id="sm6yiC6YzLinBvlQKZiJ-5" value="palavra-passe" style="text;strokeColor=none;fillColor=none;align=left;verticalAlign=middle;spacingLeft=4;spacingRight=4;overflow=hidden;points=[[0,0.5],[1,0.5]];portConstraint=eastwest;rotatable=0;" parent="sm6yiC6YzLinBvlQKZiJ-2" vertex="1">
          <mxGeometry y="130" width="150" height="30" as="geometry" />
        </mxCell>
        <mxCell id="Yn7DZ3rDWXseN25ozCn5-14" style="edgeStyle=orthogonalEdgeStyle;rounded=0;orthogonalLoop=1;jettySize=auto;html=1;entryX=0.5;entryY=1;entryDx=0;entryDy=0;endArrow=none;endFill=0;" parent="1" source="sm6yiC6YzLinBvlQKZiJ-7" target="Yn7DZ3rDWXseN25ozCn5-10" edge="1">
          <mxGeometry relative="1" as="geometry">
            <Array as="points">
              <mxPoint x="730" y="630" />
            </Array>
          </mxGeometry>
        </mxCell>
        <mxCell id="Yn7DZ3rDWXseN25ozCn5-16" style="edgeStyle=orthogonalEdgeStyle;rounded=0;orthogonalLoop=1;jettySize=auto;html=1;entryX=0.636;entryY=1.033;entryDx=0;entryDy=0;entryPerimeter=0;endArrow=none;endFill=0;" parent="1" source="sm6yiC6YzLinBvlQKZiJ-7" target="sm6yiC6YzLinBvlQKZiJ-16" edge="1">
          <mxGeometry relative="1" as="geometry">
            <Array as="points">
              <mxPoint x="870" y="840" />
              <mxPoint x="870" y="730" />
              <mxPoint x="939" y="730" />
            </Array>
            <mxPoint x="938.48" y="672.1199999999999" as="targetPoint" />
          </mxGeometry>
        </mxCell>
        <mxCell id="kGJ8lPX1goC4PB3dhbB_-1" style="edgeStyle=orthogonalEdgeStyle;rounded=0;orthogonalLoop=1;jettySize=auto;html=1;entryX=1;entryY=-0.2;entryDx=0;entryDy=0;entryPerimeter=0;endArrow=none;endFill=0;" parent="1" source="sm6yiC6YzLinBvlQKZiJ-7" target="sm6yiC6YzLinBvlQKZiJ-14" edge="1">
          <mxGeometry relative="1" as="geometry">
            <Array as="points">
              <mxPoint x="790" y="780" />
              <mxPoint x="820" y="780" />
              <mxPoint x="820" y="356" />
              <mxPoint x="762" y="356" />
              <mxPoint x="762" y="354" />
            </Array>
          </mxGeometry>
        </mxCell>
        <mxCell id="sm6yiC6YzLinBvlQKZiJ-7" value="Ticket" style="swimlane;fontStyle=0;childLayout=stackLayout;horizontal=1;startSize=30;horizontalStack=0;resizeParent=1;resizeParentMax=0;resizeLast=0;collapsible=1;marginBottom=0;" parent="1" vertex="1">
          <mxGeometry x="680" y="800" width="140" height="210" as="geometry" />
        </mxCell>
        <mxCell id="sm6yiC6YzLinBvlQKZiJ-9" value="idTicket" style="text;strokeColor=none;fillColor=none;align=left;verticalAlign=middle;spacingLeft=4;spacingRight=4;overflow=hidden;points=[[0,0.5],[1,0.5]];portConstraint=eastwest;rotatable=0;" parent="sm6yiC6YzLinBvlQKZiJ-7" vertex="1">
          <mxGeometry y="30" width="140" height="30" as="geometry" />
        </mxCell>
        <mxCell id="sm6yiC6YzLinBvlQKZiJ-8" value="title" style="text;strokeColor=none;fillColor=none;align=left;verticalAlign=middle;spacingLeft=4;spacingRight=4;overflow=hidden;points=[[0,0.5],[1,0.5]];portConstraint=eastwest;rotatable=0;" parent="sm6yiC6YzLinBvlQKZiJ-7" vertex="1">
          <mxGeometry y="60" width="140" height="30" as="geometry" />
        </mxCell>
        <mxCell id="sm6yiC6YzLinBvlQKZiJ-10" value="status" style="text;strokeColor=none;fillColor=none;align=left;verticalAlign=middle;spacingLeft=4;spacingRight=4;overflow=hidden;points=[[0,0.5],[1,0.5]];portConstraint=eastwest;rotatable=0;" parent="sm6yiC6YzLinBvlQKZiJ-7" vertex="1">
          <mxGeometry y="90" width="140" height="30" as="geometry" />
        </mxCell>
        <mxCell id="0oyPMGj-IVp3q2X3DMlT-2" value="description" style="text;strokeColor=none;fillColor=none;align=left;verticalAlign=middle;spacingLeft=4;spacingRight=4;overflow=hidden;points=[[0,0.5],[1,0.5]];portConstraint=eastwest;rotatable=0;" parent="sm6yiC6YzLinBvlQKZiJ-7" vertex="1">
          <mxGeometry y="120" width="140" height="30" as="geometry" />
        </mxCell>
        <mxCell id="kR_ND1XWnwyF31cymqeU-1" value="priority" style="text;strokeColor=none;fillColor=none;align=left;verticalAlign=middle;spacingLeft=4;spacingRight=4;overflow=hidden;points=[[0,0.5],[1,0.5]];portConstraint=eastwest;rotatable=0;" parent="sm6yiC6YzLinBvlQKZiJ-7" vertex="1">
          <mxGeometry y="150" width="140" height="30" as="geometry" />
        </mxCell>
        <mxCell id="XOQbQtNfV7LWacV_myiN-1" value="similarTicketId" style="text;strokeColor=none;fillColor=none;align=left;verticalAlign=middle;spacingLeft=4;spacingRight=4;overflow=hidden;points=[[0,0.5],[1,0.5]];portConstraint=eastwest;rotatable=0;" vertex="1" parent="sm6yiC6YzLinBvlQKZiJ-7">
          <mxGeometry y="180" width="140" height="30" as="geometry" />
        </mxCell>
        <mxCell id="sm6yiC6YzLinBvlQKZiJ-11" value="Department" style="swimlane;fontStyle=0;childLayout=stackLayout;horizontal=1;startSize=30;horizontalStack=0;resizeParent=1;resizeParentMax=0;resizeLast=0;collapsible=1;marginBottom=0;" parent="1" vertex="1">
          <mxGeometry x="620" y="270" width="140" height="120" as="geometry" />
        </mxCell>
        <mxCell id="sm6yiC6YzLinBvlQKZiJ-12" value="idDepartament" style="text;strokeColor=none;fillColor=none;align=left;verticalAlign=middle;spacingLeft=4;spacingRight=4;overflow=hidden;points=[[0,0.5],[1,0.5]];portConstraint=eastwest;rotatable=0;" parent="sm6yiC6YzLinBvlQKZiJ-11" vertex="1">
          <mxGeometry y="30" width="140" height="30" as="geometry" />
        </mxCell>
        <mxCell id="sm6yiC6YzLinBvlQKZiJ-13" value="title" style="text;strokeColor=none;fillColor=none;align=left;verticalAlign=middle;spacingLeft=4;spacingRight=4;overflow=hidden;points=[[0,0.5],[1,0.5]];portConstraint=eastwest;rotatable=0;" parent="sm6yiC6YzLinBvlQKZiJ-11" vertex="1">
          <mxGeometry y="60" width="140" height="30" as="geometry" />
        </mxCell>
        <mxCell id="sm6yiC6YzLinBvlQKZiJ-14" value="description" style="text;strokeColor=none;fillColor=none;align=left;verticalAlign=middle;spacingLeft=4;spacingRight=4;overflow=hidden;points=[[0,0.5],[1,0.5]];portConstraint=eastwest;rotatable=0;" parent="sm6yiC6YzLinBvlQKZiJ-11" vertex="1">
          <mxGeometry y="90" width="140" height="30" as="geometry" />
        </mxCell>
        <mxCell id="Yn7DZ3rDWXseN25ozCn5-22" style="edgeStyle=orthogonalEdgeStyle;rounded=0;orthogonalLoop=1;jettySize=auto;html=1;entryX=1;entryY=0.5;entryDx=0;entryDy=0;endArrow=none;endFill=0;" parent="1" source="sm6yiC6YzLinBvlQKZiJ-15" target="sm6yiC6YzLinBvlQKZiJ-13" edge="1">
          <mxGeometry relative="1" as="geometry" />
        </mxCell>
        <mxCell id="sm6yiC6YzLinBvlQKZiJ-15" value="Hashtag" style="swimlane;fontStyle=0;childLayout=stackLayout;horizontal=1;startSize=22;horizontalStack=0;resizeParent=1;resizeParentMax=0;resizeLast=0;collapsible=1;marginBottom=0;" parent="1" vertex="1">
          <mxGeometry x="850" y="560" width="140" height="82" as="geometry" />
        </mxCell>
        <mxCell id="sm6yiC6YzLinBvlQKZiJ-24" value="idHashtag" style="text;strokeColor=none;fillColor=none;align=left;verticalAlign=middle;spacingLeft=4;spacingRight=4;overflow=hidden;points=[[0,0.5],[1,0.5]];portConstraint=eastwest;rotatable=0;" parent="sm6yiC6YzLinBvlQKZiJ-15" vertex="1">
          <mxGeometry y="22" width="140" height="30" as="geometry" />
        </mxCell>
        <mxCell id="sm6yiC6YzLinBvlQKZiJ-16" value="title" style="text;strokeColor=none;fillColor=none;align=left;verticalAlign=middle;spacingLeft=4;spacingRight=4;overflow=hidden;points=[[0,0.5],[1,0.5]];portConstraint=eastwest;rotatable=0;" parent="sm6yiC6YzLinBvlQKZiJ-15" vertex="1">
          <mxGeometry y="52" width="140" height="30" as="geometry" />
        </mxCell>
        <mxCell id="sm6yiC6YzLinBvlQKZiJ-52" style="edgeStyle=orthogonalEdgeStyle;rounded=0;orthogonalLoop=1;jettySize=auto;html=1;exitX=0.5;exitY=0;exitDx=0;exitDy=0;fontSize=14;endArrow=none;endFill=0;" parent="1" source="sm6yiC6YzLinBvlQKZiJ-30" edge="1">
          <mxGeometry relative="1" as="geometry">
            <mxPoint x="450" y="580" as="targetPoint" />
            <Array as="points">
              <mxPoint x="110" y="540" />
              <mxPoint x="450" y="540" />
            </Array>
          </mxGeometry>
        </mxCell>
        <mxCell id="sm6yiC6YzLinBvlQKZiJ-30" value="Admin" style="swimlane;fontStyle=0;childLayout=stackLayout;horizontal=1;startSize=30;horizontalStack=0;resizeParent=1;resizeParentMax=0;resizeLast=0;collapsible=1;marginBottom=0;fontSize=14;" parent="1" vertex="1">
          <mxGeometry x="40" y="620" width="140" height="60" as="geometry" />
        </mxCell>
        <mxCell id="Yn7DZ3rDWXseN25ozCn5-5" style="edgeStyle=orthogonalEdgeStyle;rounded=0;orthogonalLoop=1;jettySize=auto;html=1;entryX=0.25;entryY=0;entryDx=0;entryDy=0;endArrow=none;endFill=0;" parent="1" source="sm6yiC6YzLinBvlQKZiJ-34" target="b-EfdcZsi6IORUyoJe4Z-59" edge="1">
          <mxGeometry relative="1" as="geometry">
            <Array as="points">
              <mxPoint x="320" y="770" />
            </Array>
          </mxGeometry>
        </mxCell>
        <mxCell id="Yn7DZ3rDWXseN25ozCn5-23" style="edgeStyle=orthogonalEdgeStyle;rounded=0;orthogonalLoop=1;jettySize=auto;html=1;endArrow=none;endFill=0;" parent="1" source="sm6yiC6YzLinBvlQKZiJ-34" edge="1">
          <mxGeometry relative="1" as="geometry">
            <Array as="points">
              <mxPoint x="250" y="1090" />
              <mxPoint x="750" y="1090" />
            </Array>
            <mxPoint x="750" y="1010" as="targetPoint" />
          </mxGeometry>
        </mxCell>
        <mxCell id="sm6yiC6YzLinBvlQKZiJ-34" value="Client" style="swimlane;fontStyle=0;childLayout=stackLayout;horizontal=1;startSize=30;horizontalStack=0;resizeParent=1;resizeParentMax=0;resizeLast=0;collapsible=1;marginBottom=0;fontSize=14;" parent="1" vertex="1">
          <mxGeometry x="210" y="620" width="140" height="60" as="geometry" />
        </mxCell>
        <mxCell id="sm6yiC6YzLinBvlQKZiJ-53" style="edgeStyle=orthogonalEdgeStyle;rounded=0;orthogonalLoop=1;jettySize=auto;html=1;exitX=0.5;exitY=0;exitDx=0;exitDy=0;fontSize=14;endArrow=none;endFill=0;" parent="1" source="sm6yiC6YzLinBvlQKZiJ-38" edge="1">
          <mxGeometry relative="1" as="geometry">
            <mxPoint x="450" y="580" as="targetPoint" />
            <Array as="points">
              <mxPoint x="450" y="600" />
              <mxPoint x="450" y="600" />
            </Array>
          </mxGeometry>
        </mxCell>
        <mxCell id="Yn7DZ3rDWXseN25ozCn5-6" style="edgeStyle=orthogonalEdgeStyle;rounded=0;orthogonalLoop=1;jettySize=auto;html=1;entryX=0.556;entryY=-0.002;entryDx=0;entryDy=0;entryPerimeter=0;endArrow=none;endFill=0;" parent="1" source="sm6yiC6YzLinBvlQKZiJ-38" target="b-EfdcZsi6IORUyoJe4Z-59" edge="1">
          <mxGeometry relative="1" as="geometry">
            <Array as="points">
              <mxPoint x="410" y="770" />
            </Array>
          </mxGeometry>
        </mxCell>
        <mxCell id="Yn7DZ3rDWXseN25ozCn5-28" style="edgeStyle=orthogonalEdgeStyle;rounded=0;orthogonalLoop=1;jettySize=auto;html=1;entryX=0.005;entryY=0.11;entryDx=0;entryDy=0;entryPerimeter=0;endArrow=none;endFill=0;" parent="1" source="sm6yiC6YzLinBvlQKZiJ-38" target="sm6yiC6YzLinBvlQKZiJ-9" edge="1">
          <mxGeometry relative="1" as="geometry">
            <Array as="points">
              <mxPoint x="490" y="833" />
            </Array>
          </mxGeometry>
        </mxCell>
        <mxCell id="Yn7DZ3rDWXseN25ozCn5-29" style="edgeStyle=orthogonalEdgeStyle;rounded=0;orthogonalLoop=1;jettySize=auto;html=1;entryX=0;entryY=0.25;entryDx=0;entryDy=0;endArrow=none;endFill=0;" parent="1" source="sm6yiC6YzLinBvlQKZiJ-38" target="Yn7DZ3rDWXseN25ozCn5-10" edge="1">
          <mxGeometry relative="1" as="geometry">
            <Array as="points">
              <mxPoint x="580" y="660" />
              <mxPoint x="580" y="580" />
              <mxPoint x="640" y="580" />
            </Array>
          </mxGeometry>
        </mxCell>
        <mxCell id="sm6yiC6YzLinBvlQKZiJ-38" value="Agent" style="swimlane;fontStyle=0;childLayout=stackLayout;horizontal=1;startSize=30;horizontalStack=0;resizeParent=1;resizeParentMax=0;resizeLast=0;collapsible=1;marginBottom=0;fontSize=14;" parent="1" vertex="1">
          <mxGeometry x="380" y="620" width="140" height="60" as="geometry" />
        </mxCell>
        <mxCell id="sm6yiC6YzLinBvlQKZiJ-48" value="" style="endArrow=block;endSize=16;endFill=0;html=1;rounded=0;fontSize=14;exitX=0.5;exitY=0;exitDx=0;exitDy=0;entryX=0.46;entryY=1.033;entryDx=0;entryDy=0;entryPerimeter=0;" parent="1" source="sm6yiC6YzLinBvlQKZiJ-34" target="sm6yiC6YzLinBvlQKZiJ-5" edge="1">
          <mxGeometry x="-0.3655" y="-101" width="160" relative="1" as="geometry">
            <mxPoint x="250" y="580" as="sourcePoint" />
            <mxPoint x="280" y="500" as="targetPoint" />
            <mxPoint as="offset" />
          </mxGeometry>
        </mxCell>
        <mxCell id="b-EfdcZsi6IORUyoJe4Z-47" value="FAQ" style="swimlane;fontStyle=0;childLayout=stackLayout;horizontal=1;startSize=26;fillColor=none;horizontalStack=0;resizeParent=1;resizeParentMax=0;resizeLast=0;collapsible=1;marginBottom=0;whiteSpace=wrap;html=1;" parent="1" vertex="1">
          <mxGeometry y="278" width="140" height="104" as="geometry" />
        </mxCell>
        <mxCell id="b-EfdcZsi6IORUyoJe4Z-48" value="idFaq" style="text;strokeColor=none;fillColor=none;align=left;verticalAlign=top;spacingLeft=4;spacingRight=4;overflow=hidden;rotatable=0;points=[[0,0.5],[1,0.5]];portConstraint=eastwest;whiteSpace=wrap;html=1;" parent="b-EfdcZsi6IORUyoJe4Z-47" vertex="1">
          <mxGeometry y="26" width="140" height="26" as="geometry" />
        </mxCell>
        <mxCell id="b-EfdcZsi6IORUyoJe4Z-49" value="question" style="text;strokeColor=none;fillColor=none;align=left;verticalAlign=top;spacingLeft=4;spacingRight=4;overflow=hidden;rotatable=0;points=[[0,0.5],[1,0.5]];portConstraint=eastwest;whiteSpace=wrap;html=1;" parent="b-EfdcZsi6IORUyoJe4Z-47" vertex="1">
          <mxGeometry y="52" width="140" height="26" as="geometry" />
        </mxCell>
        <mxCell id="b-EfdcZsi6IORUyoJe4Z-50" value="answer&lt;br&gt;" style="text;strokeColor=none;fillColor=none;align=left;verticalAlign=top;spacingLeft=4;spacingRight=4;overflow=hidden;rotatable=0;points=[[0,0.5],[1,0.5]];portConstraint=eastwest;whiteSpace=wrap;html=1;" parent="b-EfdcZsi6IORUyoJe4Z-47" vertex="1">
          <mxGeometry y="78" width="140" height="26" as="geometry" />
        </mxCell>
        <mxCell id="b-EfdcZsi6IORUyoJe4Z-59" value="Inquiry" style="swimlane;fontStyle=0;childLayout=stackLayout;horizontal=1;startSize=30;horizontalStack=0;resizeParent=1;resizeParentMax=0;resizeLast=0;collapsible=1;marginBottom=0;whiteSpace=wrap;html=1;" parent="1" vertex="1">
          <mxGeometry x="300" y="770" width="140" height="120" as="geometry" />
        </mxCell>
        <mxCell id="b-EfdcZsi6IORUyoJe4Z-60" value="idInquiry" style="text;strokeColor=none;fillColor=none;align=left;verticalAlign=middle;spacingLeft=4;spacingRight=4;overflow=hidden;points=[[0,0.5],[1,0.5]];portConstraint=eastwest;rotatable=0;whiteSpace=wrap;html=1;" parent="b-EfdcZsi6IORUyoJe4Z-59" vertex="1">
          <mxGeometry y="30" width="140" height="30" as="geometry" />
        </mxCell>
        <mxCell id="b-EfdcZsi6IORUyoJe4Z-76" value="question&lt;span style=&quot;white-space: pre;&quot;&gt; &lt;/span&gt;" style="text;strokeColor=none;fillColor=none;align=left;verticalAlign=middle;spacingLeft=4;spacingRight=4;overflow=hidden;points=[[0,0.5],[1,0.5]];portConstraint=eastwest;rotatable=0;whiteSpace=wrap;html=1;" parent="b-EfdcZsi6IORUyoJe4Z-59" vertex="1">
          <mxGeometry y="60" width="140" height="30" as="geometry" />
        </mxCell>
        <mxCell id="b-EfdcZsi6IORUyoJe4Z-77" value="answer" style="text;strokeColor=none;fillColor=none;align=left;verticalAlign=middle;spacingLeft=4;spacingRight=4;overflow=hidden;points=[[0,0.5],[1,0.5]];portConstraint=eastwest;rotatable=0;whiteSpace=wrap;html=1;" parent="b-EfdcZsi6IORUyoJe4Z-59" vertex="1">
          <mxGeometry y="90" width="140" height="30" as="geometry" />
        </mxCell>
        <mxCell id="b-EfdcZsi6IORUyoJe4Z-74" value="*" style="text;html=1;strokeColor=none;fillColor=none;align=center;verticalAlign=middle;whiteSpace=wrap;rounded=0;" parent="1" vertex="1">
          <mxGeometry x="-10" y="380" width="20" height="18" as="geometry" />
        </mxCell>
        <mxCell id="b-EfdcZsi6IORUyoJe4Z-75" value="1" style="text;html=1;strokeColor=none;fillColor=none;align=center;verticalAlign=middle;whiteSpace=wrap;rounded=0;" parent="1" vertex="1">
          <mxGeometry x="520" y="640" width="20" height="20" as="geometry" />
        </mxCell>
        <mxCell id="Yn7DZ3rDWXseN25ozCn5-4" style="edgeStyle=orthogonalEdgeStyle;rounded=0;orthogonalLoop=1;jettySize=auto;html=1;entryX=-0.007;entryY=0.816;entryDx=0;entryDy=0;entryPerimeter=0;endArrow=none;endFill=0;" parent="1" source="sm6yiC6YzLinBvlQKZiJ-3" target="sm6yiC6YzLinBvlQKZiJ-13" edge="1">
          <mxGeometry relative="1" as="geometry" />
        </mxCell>
        <mxCell id="Yn7DZ3rDWXseN25ozCn5-10" value="Task" style="swimlane;fontStyle=0;childLayout=stackLayout;horizontal=1;startSize=30;horizontalStack=0;resizeParent=1;resizeParentMax=0;resizeLast=0;collapsible=1;marginBottom=0;whiteSpace=wrap;html=1;" parent="1" vertex="1">
          <mxGeometry x="640" y="510" width="140" height="120" as="geometry" />
        </mxCell>
        <mxCell id="Yn7DZ3rDWXseN25ozCn5-60" value="idTask" style="text;strokeColor=none;fillColor=none;align=left;verticalAlign=middle;spacingLeft=4;spacingRight=4;overflow=hidden;points=[[0,0.5],[1,0.5]];portConstraint=eastwest;rotatable=0;" parent="Yn7DZ3rDWXseN25ozCn5-10" vertex="1">
          <mxGeometry y="30" width="140" height="30" as="geometry" />
        </mxCell>
        <mxCell id="0oyPMGj-IVp3q2X3DMlT-1" value="description" style="text;strokeColor=none;fillColor=none;align=left;verticalAlign=middle;spacingLeft=4;spacingRight=4;overflow=hidden;points=[[0,0.5],[1,0.5]];portConstraint=eastwest;rotatable=0;" parent="Yn7DZ3rDWXseN25ozCn5-10" vertex="1">
          <mxGeometry y="60" width="140" height="30" as="geometry" />
        </mxCell>
        <mxCell id="rEYAYGSltCQgFbaOYOLU-1" value="status" style="text;strokeColor=none;fillColor=none;align=left;verticalAlign=middle;spacingLeft=4;spacingRight=4;overflow=hidden;points=[[0,0.5],[1,0.5]];portConstraint=eastwest;rotatable=0;" parent="Yn7DZ3rDWXseN25ozCn5-10" vertex="1">
          <mxGeometry y="90" width="140" height="30" as="geometry" />
        </mxCell>
        <mxCell id="Yn7DZ3rDWXseN25ozCn5-17" value="Documents" style="swimlane;fontStyle=0;childLayout=stackLayout;horizontal=1;startSize=30;horizontalStack=0;resizeParent=1;resizeParentMax=0;resizeLast=0;collapsible=1;marginBottom=0;whiteSpace=wrap;html=1;" parent="1" vertex="1">
          <mxGeometry x="930" y="860" width="140" height="60" as="geometry" />
        </mxCell>
        <mxCell id="Yn7DZ3rDWXseN25ozCn5-62" value="idDocument" style="text;strokeColor=none;fillColor=none;align=left;verticalAlign=middle;spacingLeft=4;spacingRight=4;overflow=hidden;points=[[0,0.5],[1,0.5]];portConstraint=eastwest;rotatable=0;" parent="Yn7DZ3rDWXseN25ozCn5-17" vertex="1">
          <mxGeometry y="30" width="140" height="30" as="geometry" />
        </mxCell>
        <mxCell id="Yn7DZ3rDWXseN25ozCn5-25" style="edgeStyle=orthogonalEdgeStyle;rounded=0;orthogonalLoop=1;jettySize=auto;html=1;entryX=0;entryY=0.5;entryDx=0;entryDy=0;endArrow=none;endFill=0;" parent="1" source="b-EfdcZsi6IORUyoJe4Z-76" target="sm6yiC6YzLinBvlQKZiJ-9" edge="1">
          <mxGeometry relative="1" as="geometry">
            <Array as="points">
              <mxPoint x="680" y="860" />
            </Array>
          </mxGeometry>
        </mxCell>
        <mxCell id="Yn7DZ3rDWXseN25ozCn5-30" value="*" style="text;html=1;strokeColor=none;fillColor=none;align=center;verticalAlign=middle;whiteSpace=wrap;rounded=0;" parent="1" vertex="1">
          <mxGeometry x="360" y="330" width="20" height="20" as="geometry" />
        </mxCell>
        <mxCell id="Yn7DZ3rDWXseN25ozCn5-33" value="*" style="text;html=1;strokeColor=none;fillColor=none;align=center;verticalAlign=middle;whiteSpace=wrap;rounded=0;" parent="1" vertex="1">
          <mxGeometry x="600" y="330" width="20" height="20" as="geometry" />
        </mxCell>
        <mxCell id="Yn7DZ3rDWXseN25ozCn5-34" value="*" style="text;html=1;strokeColor=none;fillColor=none;align=center;verticalAlign=middle;whiteSpace=wrap;rounded=0;" parent="1" vertex="1">
          <mxGeometry x="920" y="540" width="20" height="20" as="geometry" />
        </mxCell>
        <mxCell id="Yn7DZ3rDWXseN25ozCn5-35" value="1" style="text;html=1;strokeColor=none;fillColor=none;align=center;verticalAlign=middle;whiteSpace=wrap;rounded=0;" parent="1" vertex="1">
          <mxGeometry x="760" y="320" width="20" height="20" as="geometry" />
        </mxCell>
        <mxCell id="Yn7DZ3rDWXseN25ozCn5-36" value="*" style="text;html=1;strokeColor=none;fillColor=none;align=center;verticalAlign=middle;whiteSpace=wrap;rounded=0;" parent="1" vertex="1">
          <mxGeometry x="940" y="642" width="20" height="20" as="geometry" />
        </mxCell>
        <mxCell id="Yn7DZ3rDWXseN25ozCn5-37" value="*" style="text;html=1;strokeColor=none;fillColor=none;align=center;verticalAlign=middle;whiteSpace=wrap;rounded=0;" parent="1" vertex="1">
          <mxGeometry x="820" y="840" width="20" height="20" as="geometry" />
        </mxCell>
        <mxCell id="Yn7DZ3rDWXseN25ozCn5-38" value="1" style="text;html=1;strokeColor=none;fillColor=none;align=center;verticalAlign=middle;whiteSpace=wrap;rounded=0;" parent="1" vertex="1">
          <mxGeometry x="710" y="780" width="20" height="20" as="geometry" />
        </mxCell>
        <mxCell id="Yn7DZ3rDWXseN25ozCn5-39" value="*" style="text;html=1;strokeColor=none;fillColor=none;align=center;verticalAlign=middle;whiteSpace=wrap;rounded=0;" parent="1" vertex="1">
          <mxGeometry x="710" y="630" width="20" height="20" as="geometry" />
        </mxCell>
        <mxCell id="Yn7DZ3rDWXseN25ozCn5-41" value="1" style="text;html=1;strokeColor=none;fillColor=none;align=center;verticalAlign=middle;whiteSpace=wrap;rounded=0;" parent="1" vertex="1">
          <mxGeometry x="490" y="680" width="20" height="20" as="geometry" />
        </mxCell>
        <mxCell id="Yn7DZ3rDWXseN25ozCn5-42" value="*" style="text;html=1;strokeColor=none;fillColor=none;align=center;verticalAlign=middle;whiteSpace=wrap;rounded=0;" parent="1" vertex="1">
          <mxGeometry x="660" y="810" width="20" height="20" as="geometry" />
        </mxCell>
        <mxCell id="Yn7DZ3rDWXseN25ozCn5-44" value="1" style="text;html=1;strokeColor=none;fillColor=none;align=center;verticalAlign=middle;whiteSpace=wrap;rounded=0;" parent="1" vertex="1">
          <mxGeometry x="660" y="840" width="20" height="20" as="geometry" />
        </mxCell>
        <mxCell id="Yn7DZ3rDWXseN25ozCn5-46" value="*" style="text;html=1;strokeColor=none;fillColor=none;align=center;verticalAlign=middle;whiteSpace=wrap;rounded=0;" parent="1" vertex="1">
          <mxGeometry x="440" y="840" width="20" height="20" as="geometry" />
        </mxCell>
        <mxCell id="Yn7DZ3rDWXseN25ozCn5-47" value="*" style="text;html=1;strokeColor=none;fillColor=none;align=center;verticalAlign=middle;whiteSpace=wrap;rounded=0;" parent="1" vertex="1">
          <mxGeometry x="620" y="560" width="20" height="20" as="geometry" />
        </mxCell>
        <mxCell id="Yn7DZ3rDWXseN25ozCn5-49" value="*" style="text;html=1;strokeColor=none;fillColor=none;align=center;verticalAlign=middle;whiteSpace=wrap;rounded=0;" parent="1" vertex="1">
          <mxGeometry x="910" y="880" width="20" height="30" as="geometry" />
        </mxCell>
        <mxCell id="Yn7DZ3rDWXseN25ozCn5-51" value="1" style="text;html=1;strokeColor=none;fillColor=none;align=center;verticalAlign=middle;whiteSpace=wrap;rounded=0;" parent="1" vertex="1">
          <mxGeometry x="230" y="680" width="10" height="20" as="geometry" />
        </mxCell>
        <mxCell id="Yn7DZ3rDWXseN25ozCn5-52" value="*" style="text;html=1;strokeColor=none;fillColor=none;align=center;verticalAlign=middle;whiteSpace=wrap;rounded=0;" parent="1" vertex="1">
          <mxGeometry x="750" y="1010" width="20" height="20" as="geometry" />
        </mxCell>
        <mxCell id="Yn7DZ3rDWXseN25ozCn5-53" value="1" style="text;html=1;strokeColor=none;fillColor=none;align=center;verticalAlign=middle;whiteSpace=wrap;rounded=0;" parent="1" vertex="1">
          <mxGeometry x="410" y="680" width="20" height="20" as="geometry" />
        </mxCell>
        <mxCell id="Yn7DZ3rDWXseN25ozCn5-55" value="*" style="text;html=1;strokeColor=none;fillColor=none;align=center;verticalAlign=middle;whiteSpace=wrap;rounded=0;" parent="1" vertex="1">
          <mxGeometry x="410" y="750" width="20" height="20" as="geometry" />
        </mxCell>
        <mxCell id="Yn7DZ3rDWXseN25ozCn5-57" value="1" style="text;html=1;strokeColor=none;fillColor=none;align=center;verticalAlign=middle;whiteSpace=wrap;rounded=0;" parent="1" vertex="1">
          <mxGeometry x="320" y="680" width="20" height="20" as="geometry" />
        </mxCell>
        <mxCell id="Yn7DZ3rDWXseN25ozCn5-58" value="*" style="text;html=1;strokeColor=none;fillColor=none;align=center;verticalAlign=middle;whiteSpace=wrap;rounded=0;" parent="1" vertex="1">
          <mxGeometry x="320" y="750" width="20" height="20" as="geometry" />
        </mxCell>
        <mxCell id="0oyPMGj-IVp3q2X3DMlT-8" value="1" style="text;whiteSpace=wrap;html=1;" parent="1" vertex="1">
          <mxGeometry x="820" y="880" width="20" height="20" as="geometry" />
        </mxCell>
        <mxCell id="kR_ND1XWnwyF31cymqeU-10" style="edgeStyle=orthogonalEdgeStyle;rounded=0;orthogonalLoop=1;jettySize=auto;html=1;endArrow=none;endFill=0;" parent="1" source="sm6yiC6YzLinBvlQKZiJ-10" target="Yn7DZ3rDWXseN25ozCn5-62" edge="1">
          <mxGeometry relative="1" as="geometry" />
        </mxCell>
      </root>
    </mxGraphModel>
  </diagram>
</mxfile>
